<?xml version="1.0" standalone="no"?>
<!DOCTYPE svg PUBLIC "-//W3C//DTD SVG 20010904//EN"
 "http://www.w3.org/TR/2001/REC-SVG-20010904/DTD/svg10.dtd">
<svg version="1.0" xmlns="http://www.w3.org/2000/svg"
 width="500.000000pt" height="500.000000pt" viewBox="0 0 500.000000 500.000000"
 preserveAspectRatio="xMidYMid meet">

<g transform="translate(0.000000,500.000000) scale(0.100000,-0.100000)"
fill="#000000" stroke="none">
<path d="M3259 2643 c-9 -2 -21 -18 -26 -36 -6 -18 -29 -83 -52 -144 l-40
-113 28 0 c23 0 30 6 37 33 9 31 11 32 71 35 l61 3 12 -36 c9 -27 17 -35 36
-35 13 0 24 2 24 4 0 3 -23 70 -51 150 -52 149 -54 152 -100 139z m55 -161 c7
-20 4 -22 -33 -22 -23 0 -41 3 -41 7 0 3 8 31 17 61 l17 54 17 -38 c9 -22 19
-49 23 -62z"/>
<path d="M3748 2642 c-25 -3 -30 -12 -65 -117 -20 -63 -40 -111 -44 -107 -4 4
-24 55 -44 115 -36 102 -39 107 -66 107 l-28 0 29 -77 c80 -218 75 -208 110
-208 l32 0 54 144 c30 79 53 145 52 145 -2 1 -15 0 -30 -2z"/>
<path d="M3913 2642 l-33 -3 0 -145 0 -144 95 0 c88 0 95 1 95 20 0 18 -7 20
-67 20 l-68 0 0 45 0 45 63 0 c55 0 62 2 62 20 0 18 -7 20 -64 20 l-64 0 1 40
2 40 68 0 c63 0 67 1 67 23 0 20 -5 22 -63 23 -34 0 -77 -2 -94 -4z"/>
<path d="M4385 2642 c-3 -3 -5 -48 -5 -101 l0 -95 -67 97 c-58 84 -71 97 -95
97 l-28 0 0 -145 0 -145 24 0 c22 0 23 4 30 84 3 46 3 91 0 100 -16 42 17 5
76 -85 56 -85 69 -99 93 -99 l28 0 -3 148 c-3 144 -3 147 -25 148 -12 1 -25
-1 -28 -4z"/>
<path d="M2800 2495 l0 -145 25 0 c24 0 25 2 25 65 l0 65 65 0 65 0 0 -65 c0
-62 1 -65 24 -65 13 0 27 7 30 16 3 9 6 74 6 145 l0 129 -30 0 -30 0 0 -60 0
-60 -65 0 -65 0 0 60 c0 57 -1 60 -25 60 l-25 0 0 -145z"/>
</g>
</svg>
